<?xml version="1.0" encoding="UTF-8"?>
<svg id="Ebene_1" xmlns="http://www.w3.org/2000/svg" version="1.1" viewBox="0 0 200 200">
  <!-- Generator: Adobe Illustrator 30.4.0, SVG Export Plug-In . SVG Version: 2.1.4 Build 226)  -->
  <g id="WzS4OC.tif">
    <g>
      <path d="M96.8,117.4c0,7.8-6.4,14.2-14.2,14.2s-14.2-6.4-14.2-14.2,6.4-14.2,14.2-14.2,14.2,6.4,14.2,14.2ZM91.3,117.4c0-4.8-3.9-8.6-8.6-8.6s-8.6,3.9-8.6,8.6,3.9,8.6,8.6,8.6,8.6-3.9,8.6-8.6Z"/>
      <path d="M131.6,117.4c0,7.8-6.4,14.2-14.2,14.2s-14.2-6.4-14.2-14.2,6.4-14.2,14.2-14.2,14.2,6.4,14.2,14.2ZM126,117.4c0-4.8-3.9-8.6-8.6-8.6s-8.6,3.9-8.6,8.6,3.9,8.6,8.6,8.6,8.6-3.9,8.6-8.6Z"/>
      <path d="M96.8,82.6c0,7.8-6.4,14.2-14.2,14.2s-14.2-6.4-14.2-14.2,6.4-14.2,14.2-14.2,14.2,6.4,14.2,14.2ZM91.3,82.6c0-4.8-3.9-8.6-8.6-8.6s-8.6,3.9-8.6,8.6,3.9,8.6,8.6,8.6,8.6-3.9,8.6-8.6Z"/>
      <path d="M131.6,82.6c0,7.8-6.4,14.2-14.2,14.2s-14.2-6.4-14.2-14.2,6.4-14.2,14.2-14.2,14.2,6.4,14.2,14.2ZM126,82.6c0-4.8-3.9-8.6-8.6-8.6s-8.6,3.9-8.6,8.6,3.9,8.6,8.6,8.6,8.6-3.9,8.6-8.6Z"/>
    </g>
  </g>
</svg>