<?xml version="1.0" encoding="UTF-8"?>
<svg id="Ebene_1" xmlns="http://www.w3.org/2000/svg" version="1.1" viewBox="0 0 200 200">
  <!-- Generator: Adobe Illustrator 30.4.0, SVG Export Plug-In . SVG Version: 2.1.4 Build 226)  -->
  <g id="JFpthq.tif">
    <path d="M112.6,127.9h-32.8s0-43.7,0-43.7h14.5s0-14.5,0-14.5h32.8s0,43.7,0,43.7h-14.5s0,14.5,0,14.5ZM112.6,110.2h11.3s0-37.3,0-37.3h-26.3s0,11.3,0,11.3h15s0,25.9,0,25.9ZM109.4,113.4h-14.9s0-25.8,0-25.8h-11.3s0,37.2,0,37.2h26.3s0-11.3,0-11.3ZM109.4,87.6h-11.7v22.6h11.7v-22.6Z"/>
  </g>
</svg>