<?xml version="1.0" encoding="UTF-8"?>
<svg id="Ebene_1" xmlns="http://www.w3.org/2000/svg" version="1.1" viewBox="0 0 200 200">
  <!-- Generator: Adobe Illustrator 30.4.0, SVG Export Plug-In . SVG Version: 2.1.4 Build 226)  -->
  <g id="_x30_GTRJf.tif">
    <path d="M105.7,128h-5.6s3.2-16.4,3.2-16.4h-11.2s-3.1,16.5-3.1,16.5h-5.5s3-16.4,3-16.4h-9.9c0,0,0-5.3,0-5.3h11s2.5-12.6,2.5-12.6h-10.5s0-5.2,0-5.2h11.5s3.1-16.6,3.1-16.6h5.7c0,0-3.1,16.5-3.1,16.5h11.3c0,0,3.1-16.5,3.1-16.5h5.4c0,0-3.1,16.6-3.1,16.6h10s0,5.2,0,5.2h-11s-2.4,12.6-2.4,12.6h10.8s0,5.2,0,5.2h-11.8s-3.2,16.4-3.2,16.4ZM104.4,106.3l2.4-12.6h-11.3s-2.5,12.6-2.5,12.6h11.3Z"/>
  </g>
</svg>