<?xml version="1.0" encoding="UTF-8"?>
<svg id="Ebene_2" data-name="Ebene 2" xmlns="http://www.w3.org/2000/svg" xmlns:xlink="http://www.w3.org/1999/xlink" viewBox="0 0 349.87 198.02">
  <defs>
    <style>
      .cls-1 {
        fill: #9d74b1;
      }

      .cls-2 {
        stroke-linejoin: round;
        stroke-width: 5px;
      }

      .cls-2, .cls-3 {
        fill: #fff;
      }

      .cls-2, .cls-4 {
        stroke: #fff;
        stroke-linecap: round;
      }

      .cls-5 {
        fill: #75c2a4;
      }

      .cls-6 {
        fill: #0087aa;
      }

      .cls-7 {
        fill: #e62b27;
      }

      .cls-8 {
        fill: #f087b5;
      }

      .cls-9 {
        fill: #ffe42e;
      }

      .cls-4 {
        fill: none;
        stroke-miterlimit: 10;
        stroke-width: 7px;
      }

      .cls-10 {
        fill: #6ab42d;
      }

      .cls-11 {
        fill: url(#Unbenannter_Verlauf_84);
      }

      .cls-12 {
        fill: #eb5b35;
      }

      .cls-13 {
        fill: #e60c68;
      }

      .cls-14 {
        fill: #646db2;
      }
    </style>
    <radialGradient id="Unbenannter_Verlauf_84" data-name="Unbenannter Verlauf 84" cx="174.94" cy="95.15" fx="174.94" fy="95.15" r="91.65" gradientUnits="userSpaceOnUse">
      <stop offset="0" stop-color="#d6d6d6"/>
      <stop offset=".12" stop-color="#acacac"/>
      <stop offset=".27" stop-color="#818180"/>
      <stop offset=".41" stop-color="#5d5d5b"/>
      <stop offset=".56" stop-color="#40403f"/>
      <stop offset=".71" stop-color="#2c2c2b"/>
      <stop offset=".85" stop-color="#20201f"/>
      <stop offset="1" stop-color="#1d1d1b"/>
    </radialGradient>
  </defs>
  <g id="Ebene_1-2" data-name="Ebene 1">
    <g>
      <circle class="cls-11" cx="174.94" cy="95.15" r="91.65"/>
      <g>
        <path class="cls-4" d="M114.84,163.82c-.07-.06-.14-.12-.21-.18-10.24-9.04-18.65-19.96-24.79-32.16l-.58-1.14"/>
        <path class="cls-4" d="M260.32,131.08c-13.26,30.1-42.15,52.18-77.23,55.09-17.06,1.42-33.41-1.88-47.8-8.81"/>
        <path class="cls-4" d="M239.68,29.94C221.76,12.42,196.85,2.18,169.85,3.64c-41.54,2.24-75.21,31.5-84.9,69.81"/>
        <g>
          <path class="cls-2" d="M77.8,137.31s-144.95,126.56,108.12,6.45c0,0-229.53,111.17-108.12-6.45Z"/>
          <path class="cls-2" d="M272.88,74.86c28.71-28,85.17-92.77-120.01,4.62,0,0,214.22-103.76,119.29-4.74"/>
        </g>
        <g>
          <g>
            <polygon class="cls-9" points="25.2 118.88 25.2 107.04 9.75 107.04 9.75 118.88 1.5 118.88 1.5 86.9 9.75 86.9 9.75 98.74 25.2 98.74 25.2 86.9 33.46 86.9 33.46 118.88 25.2 118.88"/>
            <path class="cls-3" d="M31.96,88.4v28.98h-5.25v-11.84H8.25v11.84H3v-28.98h5.25v11.84h18.45v-11.84h5.25M34.96,85.4h-11.25v11.84h-12.45v-11.84H0v34.98h11.25v-11.84h12.45v11.84h11.25v-34.98h0Z"/>
          </g>
          <g>
            <path class="cls-12" d="M56.57,118.88c-1.22,0-2.46-.13-3.71-.4-1.25-.26-2.48-.68-3.65-1.23-1.18-.56-2.3-1.27-3.34-2.13-1.05-.87-1.98-1.92-2.77-3.11-.79-1.19-1.41-2.57-1.86-4.08-.44-1.51-.67-3.21-.67-5.04v-15.99h8.25v15.99c0,1.28.17,2.36.51,3.2.34.85.77,1.56,1.28,2.11.51.55,1.07.99,1.67,1.3.66.34,1.28.59,1.86.76.59.16,1.11.27,1.53.3.45.04.75.07.89.07h7.73v-23.72h8.25v27.83c0,.58-.11,1.12-.32,1.63-.21.51-.52.96-.91,1.34-.37.36-.82.66-1.32.86-.51.21-1.05.32-1.61.32h-11.84Z"/>
            <path class="cls-3" d="M71.06,88.4v26.33c0,.38-.07.73-.2,1.05-.13.32-.32.6-.57.84-.24.24-.53.42-.85.56-.32.13-.67.2-1.03.2h-11.84c-1.12,0-2.25-.12-3.39-.36-1.14-.24-2.25-.62-3.32-1.12-1.07-.51-2.08-1.15-3.02-1.93-.94-.78-1.77-1.71-2.48-2.78-.71-1.07-1.26-2.3-1.67-3.68s-.61-2.92-.61-4.62v-14.49h5.25v14.49c0,1.48.21,2.73.62,3.76.41,1.02.93,1.88,1.57,2.57.63.69,1.33,1.23,2.08,1.62.75.39,1.47.68,2.15.87s1.28.31,1.8.35c.52.05.86.07,1.02.07h9.23v-23.72h5.25M74.06,85.4h-11.25v23.72h-6.23c-.12,0-.38-.02-.75-.06-.23-.02-.64-.08-1.27-.26-.48-.13-1.01-.35-1.57-.64-.45-.23-.86-.55-1.25-.99-.38-.42-.72-.97-.99-1.65-.27-.66-.4-1.55-.4-2.64v-17.49h-11.25v17.49c0,1.97.24,3.81.73,5.46.49,1.66,1.17,3.17,2.04,4.49.87,1.31,1.9,2.47,3.06,3.44,1.13.94,2.36,1.72,3.65,2.33,1.28.6,2.62,1.05,3.98,1.34,1.34.28,2.69.43,4.02.43h11.84c.76,0,1.49-.15,2.18-.43.67-.28,1.27-.67,1.79-1.17.53-.52.95-1.14,1.24-1.84.29-.69.43-1.43.43-2.2v-29.33h0Z"/>
          </g>
          <g>
            <path class="cls-7" d="M87.97,118.88c-.87,0-1.81-.15-2.81-.45-1.04-.31-2.02-.83-2.9-1.53-.89-.71-1.64-1.64-2.23-2.76-.6-1.15-.91-2.54-.91-4.14v-18.95c0-.56.11-1.1.32-1.61.21-.5.5-.94.87-1.32.38-.39.83-.69,1.34-.9.51-.21,1.05-.32,1.63-.32h25.16v8.25h-21.05v3.59h18.69v8.29h-18.69v2.97c0,.3.06.47.11.51.04.04.2.11.54.11h20.41v8.25h-20.45Z"/>
            <path class="cls-3" d="M106.93,88.4v5.25h-21.05v16.35c0,.69.18,1.21.55,1.58s.9.55,1.6.55h18.91v5.25h-18.95c-.73,0-1.52-.13-2.38-.38-.86-.26-1.66-.68-2.39-1.26-.73-.59-1.35-1.35-1.84-2.28-.49-.94-.74-2.08-.74-3.45v-18.95c0-.36.07-.71.2-1.03s.32-.61.56-.85c.24-.24.52-.43.84-.57.32-.13.67-.2,1.05-.2h23.66M104.56,100.24v5.29h-16.59v-5.29h16.59M109.93,85.4h-26.66c-.77,0-1.52.15-2.2.43-.7.29-1.32.71-1.84,1.24-.5.51-.89,1.11-1.17,1.79-.29.69-.43,1.42-.43,2.18v18.95c0,1.85.36,3.47,1.08,4.84.68,1.3,1.57,2.39,2.62,3.23,1.03.83,2.18,1.43,3.41,1.79,1.14.34,2.22.51,3.24.51h21.95v-11.25h-21.05v-.59s15.69,0,15.69,0h3v-11.29h-18.69v-.59s18.05,0,18.05,0h3v-11.25h0Z"/>
          </g>
          <g>
            <path class="cls-13" d="M142.68,119.28c-.5,0-1-.09-1.5-.27-.55-.2-1.04-.52-1.45-.96l-16.61-17.34v18.17h-8.25v-28.23c0-.85.24-1.62.72-2.32.46-.66,1.06-1.17,1.77-1.49.57-.23,1.1-.34,1.64-.34.27,0,.54.03.81.08.83.16,1.55.55,2.15,1.17l16.62,17.33v-18.17h8.25v28.23c0,.58-.11,1.14-.34,1.65-.22.5-.51.93-.88,1.3-.37.37-.82.67-1.32.88-.51.21-1.05.32-1.61.32Z"/>
            <path class="cls-3" d="M119.01,88c.17,0,.35.02.52.05.53.1.98.35,1.35.74l19.2,20.02v-20.41h5.25v26.73c0,.38-.07.73-.21,1.05-.14.32-.33.6-.57.84-.24.24-.52.42-.84.56-.32.13-.67.2-1.03.2-.32,0-.65-.06-.98-.18-.33-.12-.62-.32-.88-.59l-19.2-20.04v20.41h-5.25v-26.73c0-.54.15-1.03.45-1.46.3-.44.69-.76,1.16-.98.33-.13.67-.2,1.01-.2M119.01,85c-.73,0-1.45.14-2.14.42l-.06.02-.06.03c-.97.44-1.77,1.12-2.38,2-.65.93-.99,2.03-.99,3.17v29.73h11.25v-15.94l14.03,14.65c.57.6,1.25,1.05,2.01,1.33.66.24,1.34.37,2.01.37.76,0,1.5-.15,2.18-.43.68-.29,1.29-.69,1.81-1.2.5-.5.9-1.09,1.19-1.76.31-.7.46-1.46.46-2.25v-29.73h-11.25v15.94l-14.03-14.64c-.81-.84-1.83-1.39-2.95-1.61-.36-.07-.73-.1-1.09-.1h0Z"/>
          </g>
          <g>
            <rect class="cls-8" x="153.34" y="86.9" width="8.25" height="31.97"/>
            <path class="cls-3" d="M160.09,88.4v28.98h-5.25v-28.98h5.25M163.09,85.4h-11.25v34.98h11.25v-34.98h0Z"/>
          </g>
          <g>
            <path class="cls-1" d="M185.94,119.28c-.78,0-1.51-.21-2.17-.62-.65-.4-1.16-.95-1.52-1.61l-14.78-30.15h9.22l9.25,18.96,9.29-18.96h9.2l-14.78,30.11c-.35.69-.86,1.25-1.52,1.66-.66.41-1.4.62-2.19.62Z"/>
            <path class="cls-3" d="M202.02,88.4l-13.72,27.94c-.22.43-.54.78-.96,1.04-.42.26-.89.39-1.4.39s-.96-.13-1.38-.39c-.42-.26-.75-.61-.98-1.04l-13.7-27.94h5.88l10.18,20.87,10.22-20.87h5.86M206.83,85.4h-12.55l-.82,1.68-7.52,15.36-7.49-15.36-.82-1.68h-12.57l2.12,4.32,13.7,27.94.02.04.02.04c.48.9,1.17,1.64,2.05,2.18.9.56,1.9.84,2.96.84s2.08-.28,2.98-.84c.9-.56,1.6-1.32,2.06-2.25l13.73-27.96,2.12-4.32h0Z"/>
          </g>
          <g>
            <path class="cls-14" d="M217.22,118.88c-.87,0-1.81-.15-2.81-.45-1.04-.31-2.02-.82-2.9-1.53-.89-.71-1.64-1.64-2.23-2.76-.6-1.15-.91-2.54-.91-4.14v-18.95c0-.56.11-1.1.32-1.61.21-.5.5-.94.86-1.32.38-.39.83-.69,1.34-.91.51-.21,1.05-.32,1.63-.32h25.16v8.25h-21.05v3.59h18.69v8.29h-18.69v2.97c0,.3.06.47.11.52.04.04.2.11.54.11h20.41v8.25h-20.45Z"/>
            <path class="cls-3" d="M236.18,88.4v5.25h-21.05v16.35c0,.69.18,1.21.55,1.58s.9.55,1.6.55h18.91v5.25h-18.95c-.73,0-1.52-.13-2.38-.38s-1.66-.68-2.39-1.26c-.73-.59-1.35-1.35-1.84-2.28s-.74-2.08-.74-3.45v-18.95c0-.36.07-.71.2-1.03s.32-.61.56-.85c.24-.24.52-.43.84-.57.32-.13.67-.2,1.05-.2h23.66M233.81,100.24v5.29h-16.59v-5.29h16.59M239.18,85.4h-26.66c-.77,0-1.52.15-2.2.43-.7.29-1.32.71-1.84,1.24-.5.51-.89,1.11-1.17,1.79-.29.69-.43,1.42-.43,2.18v18.95c0,1.85.36,3.47,1.08,4.84.68,1.3,1.57,2.39,2.62,3.23,1.03.83,2.18,1.43,3.41,1.79,1.14.34,2.22.51,3.24.51h21.95v-11.25h-21.05v-.59s15.69,0,15.69,0h3v-11.29h-18.69v-.59s18.05,0,18.05,0h3v-11.25h0Z"/>
          </g>
          <g>
            <path class="cls-6" d="M266.77,118.88l-10.95-9.48h-3.82v9.48h-8.25v-27.83c0-.56.11-1.1.32-1.61.21-.5.5-.94.87-1.32.38-.39.83-.69,1.34-.9.5-.21,1.05-.32,1.63-.32h19.94c1.41,0,2.65.27,3.67.81.99.52,1.82,1.19,2.45,2,.62.79,1.08,1.65,1.35,2.57.26.88.4,1.72.4,2.51v3.35c0,1.34-.17,2.58-.51,3.66-.34,1.09-.81,2.07-1.4,2.91-.59.84-1.28,1.57-2.06,2.17-.75.58-1.54,1.06-2.37,1.44-.48.22-.96.4-1.45.55l11.58,10h-12.71ZM264.42,101.15c.48-.04.92-.15,1.31-.3.37-.15.68-.35.95-.6.24-.23.43-.5.56-.84.14-.35.21-.78.21-1.27v-2.99h-15.45v5.99h12.42Z"/>
            <path class="cls-3" d="M267.84,88.4c1.17,0,2.16.21,2.97.64s1.46.96,1.97,1.6c.51.64.87,1.33,1.09,2.07s.33,1.43.33,2.08v3.35c0,1.2-.15,2.27-.44,3.21-.3.94-.7,1.77-1.2,2.5-.51.72-1.09,1.34-1.75,1.85-.66.51-1.35.93-2.07,1.26s-1.45.57-2.18.72c-.73.15-1.42.22-2.07.22l10.97,9.48h-8.12l-10.95-9.48h-3.78v-5.25h11.88c.66-.05,1.26-.19,1.81-.41.55-.22,1.02-.52,1.41-.9.4-.38.7-.83.92-1.36.22-.53.32-1.14.32-1.83v-3.31c0-.3-.04-.52-.11-.68-.07-.15-.17-.27-.28-.34-.11-.07-.24-.12-.36-.13-.13-.01-.25-.02-.35-.02h-17.34v23.72h-5.25v-26.33c0-.36.07-.71.2-1.03s.32-.61.56-.85c.24-.24.52-.43.84-.57.32-.13.67-.2,1.05-.2h19.94M267.84,85.4h-19.94c-.77,0-1.52.15-2.2.43-.7.29-1.32.71-1.84,1.24-.5.51-.89,1.11-1.17,1.79-.29.69-.43,1.42-.43,2.18v29.33h11.25v-9.48h1.76l10.11,8.75.85.73h17.3l-6.1-5.27-6.7-5.78c.67-.36,1.31-.78,1.93-1.25.89-.69,1.69-1.53,2.37-2.5.68-.97,1.22-2.09,1.61-3.32.39-1.23.58-2.61.58-4.11v-3.35c0-.94-.15-1.93-.46-2.94-.33-1.1-.87-2.13-1.61-3.07-.77-.97-1.75-1.77-2.93-2.39-1.24-.65-2.71-.98-4.36-.98h0ZM253.5,96.66h12.45v1.49c0,.37-.06.59-.1.7-.07.18-.15.26-.2.31-.13.12-.28.22-.48.3-.23.09-.51.16-.81.19h-10.84v-2.99h0Z"/>
          </g>
          <g>
            <path class="cls-5" d="M282.11,118.88v-8.25h21.77c.78,0,1.09-.24,1.26-.42.29-.31.43-.75.43-1.35,0-.31-.04-.58-.13-.82-.08-.22-.19-.39-.33-.54-.13-.14-.28-.24-.48-.32-.22-.09-.47-.13-.76-.13h-12.08c-.99,0-2.07-.17-3.19-.52-1.16-.36-2.25-.94-3.23-1.73-1.01-.81-1.85-1.86-2.5-3.13-.67-1.3-1-2.87-1-4.68s.34-3.38,1.01-4.68c.65-1.27,1.49-2.32,2.49-3.13.99-.8,2.07-1.38,3.24-1.74,1.12-.35,2.2-.52,3.19-.52h19.38v8.25h-19.38c-.75,0-1.06.24-1.23.43-.29.32-.44.77-.44,1.39,0,.91.32,1.25.42,1.36.17.18.48.41,1.25.41h12.08c.73.02,1.44.11,2.16.27.74.17,1.48.42,2.21.77.73.34,1.43.78,2.08,1.3.68.54,1.28,1.2,1.8,1.95.52.75.94,1.62,1.24,2.59s.45,2.05.45,3.24-.16,2.28-.46,3.25c-.31.96-.72,1.83-1.23,2.58-.51.76-1.13,1.42-1.84,1.96-.67.51-1.37.94-2.09,1.27-.72.33-1.46.57-2.2.73-.74.16-1.45.23-2.12.23h-21.77Z"/>
            <path class="cls-3" d="M309.67,88.4v5.25h-17.88c-1,0-1.77.3-2.33.91-.56.61-.84,1.41-.84,2.4s.28,1.81.84,2.39,1.34.88,2.33.88h12.12c.57.01,1.17.09,1.8.23s1.26.36,1.89.66c.63.3,1.22.67,1.79,1.12.57.45,1.07.99,1.51,1.63.44.63.78,1.36,1.04,2.18.26.82.38,1.75.38,2.79s-.13,1.97-.39,2.8c-.26.83-.61,1.56-1.04,2.19s-.94,1.17-1.52,1.62c-.58.44-1.18.81-1.8,1.09-.62.28-1.25.49-1.89.63-.64.13-1.24.2-1.81.2h-20.27v-5.25h20.27c1.01,0,1.79-.3,2.35-.89s.84-1.39.84-2.38c0-.48-.07-.93-.22-1.33-.15-.4-.36-.75-.64-1.05-.28-.3-.61-.53-1.01-.69-.4-.16-.84-.24-1.32-.24h-12.08c-.85,0-1.76-.15-2.75-.45-.98-.3-1.9-.79-2.74-1.46s-1.54-1.56-2.1-2.65-.84-2.42-.84-4,.28-2.91.84-3.99c.56-1.08,1.26-1.97,2.1-2.65.84-.68,1.75-1.17,2.74-1.48.98-.3,1.9-.45,2.75-.45h17.88M312.67,85.4h-20.88c-1.14,0-2.37.2-3.63.59-1.35.41-2.6,1.09-3.74,2.01-1.16.94-2.13,2.15-2.88,3.61-.78,1.51-1.17,3.31-1.17,5.37s.39,3.86,1.17,5.37c.75,1.47,1.73,2.68,2.9,3.62,1.13.91,2.39,1.58,3.73,1.99,1.27.39,2.49.59,3.63.59h12.08c.07,0,.12,0,.15.01.02.07.04.16.04.3,0,.12,0,.21-.02.27-.04,0-.1,0-.17,0h-23.27v11.25h23.27c.77,0,1.59-.09,2.43-.27.85-.18,1.7-.46,2.52-.83.82-.38,1.62-.86,2.38-1.44.83-.64,1.56-1.41,2.17-2.31.59-.87,1.07-1.87,1.42-2.97.35-1.12.53-2.36.53-3.71s-.17-2.57-.52-3.68c-.35-1.11-.83-2.12-1.44-3-.6-.87-1.31-1.63-2.1-2.27-.74-.59-1.54-1.09-2.38-1.49-.82-.39-1.67-.68-2.52-.87-.82-.18-1.62-.29-2.38-.3h-.04s-.04,0-.04,0h-12.12c-.06,0-.11,0-.15,0,0-.06-.02-.15-.02-.27,0-.15.01-.25.03-.31.04,0,.08,0,.14,0h20.88v-11.25h0Z"/>
          </g>
          <g>
            <path class="cls-10" d="M327.92,118.88c-.87,0-1.81-.15-2.81-.45-1.04-.31-2.02-.82-2.9-1.53-.89-.71-1.64-1.64-2.23-2.76-.6-1.15-.91-2.54-.91-4.14v-18.95c0-.56.11-1.1.32-1.61.21-.5.5-.94.86-1.32.38-.39.83-.69,1.34-.91.51-.21,1.05-.32,1.63-.32h25.16v8.25h-21.05v3.59h18.69v8.29h-18.69v2.97c0,.3.06.47.11.51.04.04.2.11.54.11h20.41v8.25h-20.45Z"/>
            <path class="cls-3" d="M346.87,88.4v5.25h-21.05v16.35c0,.69.18,1.21.55,1.58s.9.55,1.6.55h18.91v5.25h-18.95c-.73,0-1.52-.13-2.38-.38s-1.66-.68-2.39-1.26c-.73-.59-1.35-1.35-1.84-2.28-.49-.94-.74-2.08-.74-3.45v-18.95c0-.36.07-.71.2-1.03s.32-.61.56-.85c.24-.24.52-.43.84-.57s.67-.2,1.05-.2h23.66M344.51,100.24v5.29h-16.59v-5.29h16.59M349.87,85.4h-26.66c-.77,0-1.52.15-2.2.43-.7.29-1.32.71-1.84,1.24-.5.51-.89,1.11-1.17,1.79-.29.69-.43,1.42-.43,2.18v18.95c0,1.85.36,3.47,1.08,4.84.68,1.3,1.57,2.39,2.62,3.23,1.03.83,2.18,1.43,3.41,1.79,1.14.34,2.22.51,3.24.51h21.95v-11.25h-21.05v-.59s15.69,0,15.69,0h3v-11.29h-18.69v-.59s18.05,0,18.05,0h3v-11.25h0Z"/>
          </g>
        </g>
      </g>
    </g>
  </g>
</svg>