<?xml version="1.0" encoding="UTF-8"?>
<svg id="Ebene_1" xmlns="http://www.w3.org/2000/svg" version="1.1" viewBox="0 0 200 200">
  <!-- Generator: Adobe Illustrator 30.4.0, SVG Export Plug-In . SVG Version: 2.1.4 Build 226)  -->
  <g id="BPgMUP.tif">
    <path d="M100,130.5c-11.3,9.1-27.4,6-34.4-6.1-7-12.1-1.7-27.8,12-32.8-2.8-14.1,7.8-27.2,22.1-27.3,14.2-.1,25.4,12.8,22.5,27.3,13.3,4.9,19.1,20.3,12.2,32.6-6.8,12.1-23,15.7-34.5,6.3ZM100,95.5c5-4.1,10.7-5.6,16.8-5.2,2.1-10.9-6.3-20.6-17.1-20.5-10.6.1-18.6,9.8-16.6,20.5,6.2-.6,12,1.3,16.9,5.2ZM96.1,99.5c-3.3-2.4-6.5-3.7-10.8-3.6,2.2,3.4,4.9,5.7,8.7,7.2l2-3.5ZM106.1,103.2c3.9-2,6.4-4,8.5-7.3-4.3,0-7.7,1.3-10.8,3.8l2.3,3.6ZM92.3,108.4c-5.8-2.2-10.1-6.1-12.8-11.6-10.2,3.8-14.3,15.6-9,24.8,5.2,9,17.3,11.4,25.7,4.7-3.9-5.4-5-11.6-3.9-17.9ZM103.8,126.3c8.5,6.8,20.8,4.2,25.9-5.1,5.1-9.2.8-20.7-9.2-24.4-2.6,5.6-7.2,9.3-12.8,11.6,1.2,6.5-.1,12.6-3.9,17.8ZM102.2,109.7h-4.5c-.6,4.5,0,8.5,2.3,12.4,2.3-4,2.9-8.2,2.2-12.4Z"/>
  </g>
</svg>